<?xml version="1.0" encoding="us-ascii" standalone="no"?><svg xmlns="http://www.w3.org/2000/svg" xmlns:xlink="http://www.w3.org/1999/xlink" contentStyleType="text/css" height="596px" preserveAspectRatio="none" style="width:834px;height:596px;background:#FFFFFF;" version="1.1" viewBox="0 0 834 596" width="834px" zoomAndPan="magnify"><defs/><g><!--cluster article_context--><g id="cluster_article_context"><path d="M56.5,6 L173.5,6 A3.75,3.75 0 0 1 176,8.5 L183,28.2969 L824.5,28.2969 A2.5,2.5 0 0 1 827,30.7969 L827,273.5 A2.5,2.5 0 0 1 824.5,276 L56.5,276 A2.5,2.5 0 0 1 54,273.5 L54,8.5 A2.5,2.5 0 0 1 56.5,6 " fill="none" style="stroke:#000000;stroke-width:1.5;"/><line style="stroke:#000000;stroke-width:1.5;" x1="54" x2="183" y1="28.2969" y2="28.2969"/><text fill="#000000" font-family="sans-serif" font-size="14" font-weight="bold" lengthAdjust="spacing" textLength="116" x="58" y="20.9951">article_context</text></g><!--cluster authentication_context--><g id="cluster_authentication_context"><path d="M8.5,300 L189.5,300 A3.75,3.75 0 0 1 192,302.5 L199,322.2969 L371.5,322.2969 A2.5,2.5 0 0 1 374,324.7969 L374,586.5 A2.5,2.5 0 0 1 371.5,589 L8.5,589 A2.5,2.5 0 0 1 6,586.5 L6,302.5 A2.5,2.5 0 0 1 8.5,300 " fill="none" style="stroke:#000000;stroke-width:1.5;"/><line style="stroke:#000000;stroke-width:1.5;" x1="6" x2="199" y1="322.2969" y2="322.2969"/><text fill="#000000" font-family="sans-serif" font-size="14" font-weight="bold" lengthAdjust="spacing" textLength="180" x="10" y="314.9951">authentication_context</text></g><!--class Article--><g id="elem_Article"><rect codeLine="10" fill="#FFC0CB" height="219.2344" id="Article" rx="2.5" ry="2.5" style="stroke:#181818;stroke-width:0.5;" width="165" x="490.5" y="41"/><text fill="#000000" font-family="sans-serif" font-size="12" font-style="italic" lengthAdjust="spacing" textLength="50" x="548" y="57.1387">&#171;Entity&#187;</text><text fill="#000000" font-family="sans-serif" font-size="14" lengthAdjust="spacing" textLength="42" x="552" y="72.9639">Article</text><line style="stroke:#181818;stroke-width:0.5;" x1="491.5" x2="654.5" y1="81.2656" y2="81.2656"/><text fill="#000000" font-family="sans-serif" font-size="14" lengthAdjust="spacing" textLength="91" x="496.5" y="98.2607">Profile author</text><text fill="#000000" font-family="sans-serif" font-size="14" lengthAdjust="spacing" textLength="63" x="496.5" y="114.5576">Slug slug</text><text fill="#000000" font-family="sans-serif" font-size="14" lengthAdjust="spacing" textLength="58" x="496.5" y="130.8545">Title title</text><text fill="#000000" font-family="sans-serif" font-size="14" lengthAdjust="spacing" textLength="152" x="496.5" y="147.1514">LongText description*</text><text fill="#000000" font-family="sans-serif" font-size="14" lengthAdjust="spacing" textLength="109" x="496.5" y="163.4482">LongText body*</text><text fill="#000000" font-family="sans-serif" font-size="14" lengthAdjust="spacing" textLength="122" x="496.5" y="179.7451">List&lt;Tag&gt; tagList</text><text fill="#000000" font-family="sans-serif" font-size="14" lengthAdjust="spacing" textLength="112" x="496.5" y="196.042">Time createdAt*</text><text fill="#000000" font-family="sans-serif" font-size="14" lengthAdjust="spacing" textLength="117" x="496.5" y="212.3389">Time updatedAt*</text><text fill="#000000" font-family="sans-serif" font-size="14" lengthAdjust="spacing" textLength="126" x="496.5" y="228.6357">boolean favorited*</text><text fill="#000000" font-family="sans-serif" font-size="14" lengthAdjust="spacing" textLength="153" x="496.5" y="244.9326">Count favoritesCount*</text><line style="stroke:#181818;stroke-width:0.5;" x1="491.5" x2="654.5" y1="252.2344" y2="252.2344"/></g><!--class Profile--><g id="elem_Profile"><rect codeLine="23" fill="#98FB98" height="121.4531" id="Profile" rx="2.5" ry="2.5" style="stroke:#181818;stroke-width:0.5;" width="157" x="298.5" y="90"/><text fill="#000000" font-family="sans-serif" font-size="12" font-style="italic" lengthAdjust="spacing" textLength="30" x="362" y="106.1387">&#171;VO&#187;</text><text fill="#000000" font-family="sans-serif" font-size="14" lengthAdjust="spacing" textLength="42" x="356" y="121.9639">Profile</text><line style="stroke:#181818;stroke-width:0.5;" x1="299.5" x2="454.5" y1="130.2656" y2="130.2656"/><text fill="#000000" font-family="sans-serif" font-size="14" lengthAdjust="spacing" textLength="62" x="304.5" y="147.2607">UserID id</text><text fill="#000000" font-family="sans-serif" font-size="14" lengthAdjust="spacing" textLength="145" x="304.5" y="163.5576">Username username</text><text fill="#000000" font-family="sans-serif" font-size="14" lengthAdjust="spacing" textLength="89" x="304.5" y="179.8545">LongText bio</text><text fill="#000000" font-family="sans-serif" font-size="14" lengthAdjust="spacing" textLength="73" x="304.5" y="196.1514">URL image</text><line style="stroke:#181818;stroke-width:0.5;" x1="299.5" x2="454.5" y1="203.4531" y2="203.4531"/></g><!--class Tag--><g id="elem_Tag"><rect codeLine="38" fill="#FFC0CB" height="72.5625" id="Tag" rx="2.5" ry="2.5" style="stroke:#181818;stroke-width:0.5;" width="120" x="691" y="114"/><text fill="#000000" font-family="sans-serif" font-size="12" font-style="italic" lengthAdjust="spacing" textLength="50" x="726" y="130.1387">&#171;Entity&#187;</text><text fill="#000000" font-family="sans-serif" font-size="14" lengthAdjust="spacing" textLength="26" x="738" y="145.9639">Tag</text><line style="stroke:#181818;stroke-width:0.5;" x1="692" x2="810" y1="154.2656" y2="154.2656"/><text fill="#000000" font-family="sans-serif" font-size="14" lengthAdjust="spacing" textLength="108" x="697" y="171.2607">Tagname name</text><line style="stroke:#181818;stroke-width:0.5;" x1="692" x2="810" y1="178.5625" y2="178.5625"/></g><!--class AuthService--><g id="elem_AuthService"><rect codeLine="33" fill="#00FFFF" height="88.8594" id="AuthService" rx="2.5" ry="2.5" style="stroke:#181818;stroke-width:0.5;" width="193" x="70.5" y="106"/><text fill="#000000" font-family="sans-serif" font-size="12" font-style="italic" lengthAdjust="spacing" textLength="59" x="137.5" y="122.1387">&#171;Service&#187;</text><text fill="#000000" font-family="sans-serif" font-size="14" lengthAdjust="spacing" textLength="82" x="126" y="137.9639">AuthService</text><line style="stroke:#181818;stroke-width:0.5;" x1="71.5" x2="262.5" y1="146.2656" y2="146.2656"/><line style="stroke:#181818;stroke-width:0.5;" x1="71.5" x2="262.5" y1="154.2656" y2="154.2656"/><ellipse cx="81.5" cy="167.9141" fill="#84BE84" rx="3" ry="3" style="stroke:#038048;stroke-width:1.0;"/><text fill="#000000" font-family="sans-serif" font-size="14" lengthAdjust="spacing" textLength="167" x="90.5" y="171.2607">Profile authorize(UserID)</text><ellipse cx="81.5" cy="184.2109" fill="#84BE84" rx="3" ry="3" style="stroke:#038048;stroke-width:1.0;"/><text fill="#000000" font-family="sans-serif" font-size="14" lengthAdjust="spacing" textLength="167" x="90.5" y="187.5576">Profile getProfile(UserID)</text></g><!--class User--><g id="elem_User"><rect codeLine="47" fill="#FFC0CB" height="72.5625" id="User" rx="2.5" ry="2.5" style="stroke:#181818;stroke-width:0.5;" width="74" x="177" y="335"/><text fill="#000000" font-family="sans-serif" font-size="12" font-style="italic" lengthAdjust="spacing" textLength="50" x="189" y="351.1387">&#171;Entity&#187;</text><text fill="#000000" font-family="sans-serif" font-size="14" lengthAdjust="spacing" textLength="32" x="198" y="366.9639">User</text><line style="stroke:#181818;stroke-width:0.5;" x1="178" x2="250" y1="375.2656" y2="375.2656"/><text fill="#000000" font-family="sans-serif" font-size="14" lengthAdjust="spacing" textLength="62" x="183" y="392.2607">UserID id</text><line style="stroke:#181818;stroke-width:0.5;" x1="178" x2="250" y1="399.5625" y2="399.5625"/></g><!--class Account--><g id="elem_Account"><rect codeLine="51" fill="#FFC0CB" height="105.1563" id="Account" rx="2.5" ry="2.5" style="stroke:#181818;stroke-width:0.5;" width="199" x="22.5" y="468"/><text fill="#000000" font-family="sans-serif" font-size="12" font-style="italic" lengthAdjust="spacing" textLength="50" x="97" y="484.1387">&#171;Entity&#187;</text><text fill="#000000" font-family="sans-serif" font-size="14" lengthAdjust="spacing" textLength="57" x="93.5" y="499.9639">Account</text><line style="stroke:#181818;stroke-width:0.5;" x1="23.5" x2="220.5" y1="508.2656" y2="508.2656"/><text fill="#000000" font-family="sans-serif" font-size="14" lengthAdjust="spacing" textLength="145" x="28.5" y="525.2607">Username username</text><text fill="#000000" font-family="sans-serif" font-size="14" lengthAdjust="spacing" textLength="76" x="28.5" y="541.5576">Email email</text><text fill="#000000" font-family="sans-serif" font-size="14" lengthAdjust="spacing" textLength="187" x="28.5" y="557.8545">SecurePassword password</text><line style="stroke:#181818;stroke-width:0.5;" x1="23.5" x2="220.5" y1="565.1563" y2="565.1563"/></g><!--class Profile--><g id="elem_Profile"><rect codeLine="57" fill="#98FB98" height="88.8594" id="Profile" rx="2.5" ry="2.5" style="stroke:#181818;stroke-width:0.5;" width="101" x="256.5" y="476"/><text fill="#000000" font-family="sans-serif" font-size="12" font-style="italic" lengthAdjust="spacing" textLength="30" x="292" y="492.1387">&#171;VO&#187;</text><text fill="#000000" font-family="sans-serif" font-size="14" lengthAdjust="spacing" textLength="42" x="286" y="507.9639">Profile</text><line style="stroke:#181818;stroke-width:0.5;" x1="257.5" x2="356.5" y1="516.2656" y2="516.2656"/><text fill="#000000" font-family="sans-serif" font-size="14" lengthAdjust="spacing" textLength="89" x="262.5" y="533.2607">LongText bio</text><text fill="#000000" font-family="sans-serif" font-size="14" lengthAdjust="spacing" textLength="73" x="262.5" y="549.5576">URL image</text><line style="stroke:#181818;stroke-width:0.5;" x1="257.5" x2="356.5" y1="556.8594" y2="556.8594"/></g><!--link Profile to Article--><g id="link_Profile_Article"><path codeLine="30" d="M455.86,150.5 C462.92,150.5 469.98,150.5 477.04,150.5 " fill="none" id="Profile-to-Article" style="stroke:#181818;stroke-width:1.0;"/><polygon fill="#181818" points="490.18,150.5,484.18,146.5,478.18,150.5,484.18,154.5,490.18,150.5" style="stroke:#181818;stroke-width:1.0;"/></g><!--link Article to Tag--><g id="link_Article_Tag"><path codeLine="31" d="M655.74,150.5 C667.4,150.5 679.06,150.5 690.72,150.5 " fill="none" id="Article-Tag" style="stroke:#181818;stroke-width:1.0;"/></g><!--link Profile to User--><g id="link_Profile_User"><path codeLine="43" d="M334.39,211.16 C317.88,234.06 298.71,260.36 281,284 C268.36,300.87 254.08,319.38 241.97,334.92 " fill="none" id="Profile-User" style="stroke:#181818;stroke-width:1.0;"/></g><!--link AuthService to User--><g id="link_AuthService_User"><path codeLine="44" d="M176.34,195.03 C184.75,234.19 197,291.29 205.22,329.61 " fill="none" id="AuthService-to-User" style="stroke:#181818;stroke-width:1.0;"/><polygon fill="#181818" points="206.31,334.65,208.3431,325.0133,205.2663,329.7602,200.5194,326.6833,206.31,334.65" style="stroke:#181818;stroke-width:1.0;"/></g><!--reverse link User to Account--><g id="link_User_Account"><path codeLine="62" d="M184.6,419.47 C174.96,434.89 164.18,452.1 154.33,467.84 " fill="none" id="User-backto-Account" style="stroke:#181818;stroke-width:1.0;"/><polygon fill="#181818" points="191.73,408.08,185.1549,411.0411,185.3593,418.2493,191.9344,415.2882,191.73,408.08" style="stroke:#181818;stroke-width:1.0;"/></g><!--reverse link User to Profile--><g id="link_User_Profile"><path codeLine="63" d="M243.6,419.28 C255.06,437.4 268.11,458.03 279.38,475.84 " fill="none" id="User-backto-Profile" style="stroke:#181818;stroke-width:1.0;"/><polygon fill="#181818" points="236.51,408.08,236.3341,415.289,242.9209,418.224,243.0968,411.015,236.51,408.08" style="stroke:#181818;stroke-width:1.0;"/></g><!--SRC=[XLF1Rjim3BtxAtXSCtXV40J8kXu655ZHPhiEhCmeH6J9aEHksP1_7sN9gT84wqKG-KZgFP8AUxO3Ukn16Gm1_ZO0dr7jjNUZxMwTSNwvlBEHus6rWe7j_bh0Zsy9H4FQ4zbh4K_aNrYHXAa3skROxBWZKEoLeQQns5COK16WZookdyhPIB_Zn2SpMsUaOfCmW0VljcmaSumxvoVNanar13acQyDHu9ZEoRvtLczIxOw2yZn4TdPnZZoxxb1S7E9oWte54NKoIibUo7l2IDqwBbvzuz3LlcVd3A65BRuupm9azwqq9fwSOJ8JScnEQekgqjgiz7iW__KBS7UoKjzWB9St4jZbiCTxu1urpVLB7s7H6jh6TdwfGbhFUYU8o7ubj9RsbY7MqypCFfuFWV_GXqpsvXpM5CkrmYlLykB5VCKtoImIZx8xpPij-JJNRzk90Ka5XMckfuZqt4LQfKbIL__DhNVqQbYrgYdXGaSzlKhoMgaq_glXb-Ezwv4DK3hpffCQFJr8eL_ET_85y-NzNNf_Jn81MP9sPbYxvfqvDly0]--></g></svg>